<?xml version="1.0" encoding="utf-8"?><!-- Uploaded to: SVG Repo, www.svgrepo.com, Generator: SVG Repo Mixer Tools -->
<svg fill="#000000" width="800px" height="800px" viewBox="0 0 24 24" id="coffee-beans-left" data-name="Flat Line" xmlns="http://www.w3.org/2000/svg" class="icon flat-line"><ellipse id="secondary" cx="14.43" cy="14.44" rx="7" ry="5" transform="matrix(0.5, -0.87, 0.87, 0.5, -5.29, 19.72)" style="fill: rgb(44, 169, 188); stroke-width: 2;"></ellipse><path id="primary" d="M6.07,3.5c4.46,4.27,3.2,5.81,4,8.18" style="fill: none; stroke: rgb(0, 0, 0); stroke-linecap: round; stroke-linejoin: round; stroke-width: 2;"></path><path id="primary-2" data-name="primary" d="M14.37,8a10.14,10.14,0,0,0-.47-.93C12,3.71,8.46,2.12,6.07,3.5S3.3,8.71,5.24,12.06a8.61,8.61,0,0,0,3.47,3.42" style="fill: none; stroke: rgb(0, 0, 0); stroke-linecap: round; stroke-linejoin: round; stroke-width: 2;"></path><path id="primary-3" data-name="primary" d="M17.93,8.38c-6.41,6.13-1,6.63-6.92,12.06" style="fill: none; stroke: rgb(0, 0, 0); stroke-linecap: round; stroke-linejoin: round; stroke-width: 2;"></path><ellipse id="primary-4" data-name="primary" cx="14.43" cy="14.44" rx="7" ry="5" transform="matrix(0.5, -0.87, 0.87, 0.5, -5.29, 19.72)" style="fill: none; stroke: rgb(0, 0, 0); stroke-linecap: round; stroke-linejoin: round; stroke-width: 2;"></ellipse></svg>