<?xml version="1.0" encoding="iso-8859-1"?><svg version="1.1" id="Layer_1" xmlns="http://www.w3.org/2000/svg" xmlns:xlink="http://www.w3.org/1999/xlink" x="0px" y="0px" viewBox="0 0 24 24" enable-background="new 0 0 24 24" xml:space="preserve"><path d="M12.0002441,2C8.1400757,2,5,6.4858398,5,12s3.1400757,10,7.0002441,10C15.8599243,22,19,17.5141602,19,12 S15.8599243,2,12.0002441,2z M12.0002441,21C8.6917114,21,6,16.9625854,6,12c0-4.9626465,2.6917114-9,6.0002441-9 C15.3085327,3,18,7.0373535,18,12C18,16.9625854,15.3085327,21,12.0002441,21z"/><path d="M12,18.999939c0-0.0065308-0.0002441-0.012085-0.0002441-0.0186157 c-0.0015869,0.0028687-0.0099487,0.0185547-0.0099487,0.0185547L12,18.999939z"/><path d="M10.9898071,9.666626c0,2.9130249,1.0073853,4.0812988,1.0099487,9.3146973 C12.0545044,18.8842163,13,17.1661987,13,14.333313c0-2.9130249-1.0075073-4.0812378-1.0099487-9.3147583 C11.9353638,5.1156616,10.9898071,6.8336792,10.9898071,9.666626z"/><path d="M11.9898071,5c0,0.0064697,0.0002441,0.012085,0.0002441,0.0185547C11.9916992,5.015686,12,5,12,5H11.9898071z"/></svg>